<svg width="68" height="40" viewBox="0 0 68 40" fill="none" xmlns="http://www.w3.org/2000/svg">
<g clip-path="url(#clip0_137_3821)">
<path d="M7.74712 40H0V0H7.74712V17.5666H7.91224L26.2411 0H36.4238L15.3979 19.5079L37.1531 39.9863H26.8053L7.89848 21.5311H7.73336V40H7.74712Z" fill="#F8F7F2"/>
<path d="M56.6379 40L67.0271 30.2256V40H56.6379Z" fill="#F8F7F2"/>
<path d="M56.6379 0L67.0271 9.77444V0H56.6379Z" fill="#F8F7F2"/>
<path d="M47.0744 22.078C48.222 22.078 49.1522 21.1538 49.1522 20.0137C49.1522 18.8737 48.222 17.9495 47.0744 17.9495C45.9269 17.9495 44.9966 18.8737 44.9966 20.0137C44.9966 21.1538 45.9269 22.078 47.0744 22.078Z" fill="#F8F7F2"/>
<path d="M47.0744 22.078C48.222 22.078 49.1522 21.1538 49.1522 20.0137C49.1522 18.8737 48.222 17.9495 47.0744 17.9495C45.9269 17.9495 44.9966 18.8737 44.9966 20.0137C44.9966 21.1538 45.9269 22.078 47.0744 22.078Z" fill="#F8F7F2"/>
<path d="M47.0744 22.078C48.222 22.078 49.1522 21.1538 49.1522 20.0137C49.1522 18.8737 48.222 17.9495 47.0744 17.9495C45.9269 17.9495 44.9966 18.8737 44.9966 20.0137C44.9966 21.1538 45.9269 22.078 47.0744 22.078Z" fill="#F8F7F2"/>
<path d="M51.3125 13.6705L47.5422 9.9248H46.2624L42.4921 13.6705V15.6254L46.9092 11.2372L51.3263 15.6254L51.3125 13.6705ZM40.5106 15.6254L36.7402 19.3711V20.6425L40.5106 24.3882H42.4783L38.0612 20L42.4783 15.6117L40.5106 15.6254ZM53.2803 15.6254H51.3125L55.7296 20.0137L51.3125 24.4019H53.2803L57.0506 20.6562V19.3848L53.2803 15.6254ZM46.8954 28.7765L42.4783 24.3882V26.3431L46.2487 30.0888H47.5284L51.2988 26.3431V24.3882L46.8954 28.7765Z" fill="#F8F7F2"/>
</g>
<defs>
<clipPath id="clip0_137_3821">
<rect width="67.027" height="40" fill="white"/>
</clipPath>
</defs>
</svg>
