<svg width="167" height="24" viewBox="0 0 167 24" fill="none" xmlns="http://www.w3.org/2000/svg">
<path d="M5.23296 22.4865H0.97998V0.549667H5.23296V10.1939H5.33303L15.34 0.549667H20.8939L9.38587 11.2932L21.2442 22.5365H15.5902L5.283 12.3926H5.23296V22.4865Z" fill="#F8F7F2"/>
<path d="M45.6117 13.0921H26.4983V13.1921C26.8485 15.0409 27.6491 16.4901 28.95 17.5894C30.2509 18.6388 31.9021 19.1885 33.8534 19.1885C36.7054 19.1885 38.7569 18.239 40.0078 16.3901H44.661C43.8104 18.4889 42.4094 20.0879 40.5081 21.2872C38.6068 22.4865 36.4052 23.0861 33.9035 23.0861C30.4511 23.0861 27.5991 21.9868 25.3475 19.8381C23.1459 17.6394 22.0452 14.891 22.0452 11.543C22.0452 8.19505 23.1459 5.4467 25.3475 3.29799C27.5991 1.09931 30.401 -3.05176e-05 33.9035 -3.05176e-05C37.3559 -3.05176e-05 40.1579 1.09931 42.3594 3.29799C44.5609 5.4467 45.6617 8.19505 45.6617 11.543L45.6117 13.0921ZM38.5567 5.34676C37.2558 4.39733 35.7047 3.84766 33.8534 3.84766C32.0021 3.84766 30.4511 4.34736 29.1501 5.34676C27.8993 6.29619 27.0487 7.59541 26.5984 9.19445V9.29439H41.1085V9.19445C40.7583 7.59541 39.9077 6.34616 38.5567 5.34676Z" fill="#F8F7F2"/>
<path d="M70.7787 22.4865H66.5257V11.0933C66.5257 8.79469 65.9253 6.99577 64.7244 5.74652C63.5236 4.49727 61.9225 3.89763 59.871 3.89763C57.8196 3.89763 56.2185 4.54724 55.0176 5.74652C53.8168 6.9458 53.2164 8.74472 53.2164 11.0933V22.4865H48.9634V11.0933C48.9634 7.49547 49.914 4.79709 51.9154 2.89823C53.8668 0.9494 56.5187 -3.05176e-05 59.821 -3.05176e-05C63.1233 -3.05176e-05 65.7752 0.9494 67.7265 2.84826C69.6779 4.74712 70.6786 7.49547 70.6786 11.0933V22.4865H70.7787Z" fill="#F8F7F2"/>
<path d="M92.6946 13.7417V14.2414C92.6946 17.1397 91.8941 19.3384 90.2929 20.8375C88.7418 22.3366 86.5903 23.0861 83.8884 23.0861C81.1865 23.0861 79.035 22.3366 77.4339 20.8375C75.8828 19.3384 75.0823 17.1397 75.0823 14.2414V-3.05176e-05H79.3353V3.29799H86.04V7.14568H79.3353V14.1915C79.3353 15.8904 79.7355 17.1397 80.5361 17.9392C81.3367 18.7387 82.4875 19.1385 83.9385 19.1385C87.0407 19.1385 88.5417 17.4895 88.5417 14.1415V13.6418H92.6946V13.7417Z" fill="#F8F7F2"/>
<path d="M115.36 9.84406H111.207V9.59421C111.207 5.79649 109.456 3.89763 105.953 3.89763C102.451 3.89763 100.7 5.79649 100.7 9.59421V22.4865H96.4468V9.59421C96.4468 6.4461 97.2974 4.04754 98.9986 2.4485C100.7 0.79949 103.001 -3.05176e-05 105.953 -3.05176e-05C108.906 -3.05176e-05 111.157 0.79949 112.858 2.4485C114.559 4.09751 115.41 6.4461 115.41 9.64418V9.84406H115.36Z" fill="#F8F7F2"/>
<path d="M138.477 3.29799C140.728 5.4467 141.779 8.19505 141.779 11.543C141.779 14.891 140.678 17.6894 138.477 19.8381C136.275 21.9868 133.473 23.0861 129.971 23.0861C126.518 23.0861 123.666 21.9868 121.465 19.8381C119.263 17.6394 118.162 14.891 118.162 11.543C118.162 8.19505 119.263 5.4467 121.465 3.29799C123.716 1.09931 126.518 -3.05176e-05 129.971 -3.05176e-05C133.423 -3.05176e-05 136.275 1.09931 138.477 3.29799ZM124.517 17.0397C125.918 18.4389 127.719 19.1885 129.971 19.1885C132.222 19.1885 134.074 18.4889 135.424 17.0397C136.825 15.6406 137.526 13.7917 137.526 11.543C137.526 9.29439 136.825 7.4455 135.424 6.04634C134.023 4.64718 132.222 3.89763 129.971 3.89763C127.719 3.89763 125.868 4.59721 124.517 6.04634C123.166 7.49547 122.415 9.29439 122.415 11.543C122.415 13.7917 123.166 15.6406 124.517 17.0397Z" fill="#F8F7F2"/>
<path d="M166.996 22.4865H162.743V11.0933C162.743 8.79469 162.143 6.99577 160.942 5.74652C159.741 4.49727 158.14 3.89763 156.089 3.89763C154.087 3.89763 152.436 4.54724 151.235 5.74652C150.035 6.9458 149.434 8.74472 149.434 11.0933V22.4865H145.181V11.0933C145.181 7.49547 146.132 4.79709 148.133 2.89823C150.085 0.9494 152.736 -3.05176e-05 156.039 -3.05176e-05C159.341 -3.05176e-05 161.993 0.9494 163.944 2.84826C165.896 4.74712 166.896 7.49547 166.896 11.0933V22.4865H166.996Z" fill="#F8F7F2"/>
</svg>
